<svg id="Logo" xmlns="http://www.w3.org/2000/svg" viewBox="0 0 500 80.5"><defs><style>.cls-1{fill:#29282f;}</style></defs><title>Artboard 1</title><path class="cls-1" d="M24.34,75.18H0c2.7,0,4.92-2.7,4.92-5.41V6.24C4.92,3.54,2.7.83,0,.83H19.34V69.77C19.34,72.48,21.55,75.18,24.34,75.18ZM47.52,18c0,16.47-18.11,20.24-26.71,21.71C29.09,35.33,32.2,27,32.2,18,32.2,8.78,28,.83,22.86.83h8.36C40.23.83,47.52,8.45,47.52,18Z"/><path class="cls-1" d="M74.31,58.19H50c2.7,0,4.92-2.7,4.92-5.41V6.24C54.89,3.54,52.68.83,50,.83H69.32v52C69.32,55.49,71.53,58.19,74.31,58.19Zm28.1,0c-2,2.13-6.06,3.36-10.41,3.44-18.85.08-16.22-32.36-22.29-32.36h5c4.83,0,8.77-6.23,8.77-14S79.56.83,74.72.83h7.87C91.11.83,98,7.22,98,15.17s-6.88,14.34-15.4,14.34H81.36a7.41,7.41,0,0,1,4.42,2.21C92.5,38.53,93,60,102.42,58.19Z"/><path class="cls-1" d="M116.83,29.51c0,17.94,3.36,27.86,9.67,28.68-13.85-.57-24.91-13.19-24.91-28.68S112.66,1.41,126.5.91C120.19,1.74,116.83,11.65,116.83,29.51Zm36.38,0c0,15.49-11.06,28.11-24.91,28.68,6.31-.82,9.67-10.73,9.67-28.68S134.61,1.74,128.3.91C142.15,1.41,153.21,14,153.21,29.51Z"/><path class="cls-1" d="M173.53,58.19c-9.91-.08-17.86-7.21-17.86-16a8.77,8.77,0,0,1,17.54,0,8.92,8.92,0,0,1-2.38,6.06c-1.23,1.31-2.62,3.2-2.79,4.75C167.63,56.47,170.83,58.11,173.53,58.19ZM196.64.83c-2.7,0-4.92,2.7-4.92,5.41v36c0,7.62-6.06,14-14.18,15.65,2.87-.57,6.06-2.38,6.06-5,0-4.34-6.39-6.64-6.39-10.65v-36c0-2.71-2.21-5.41-4.92-5.41h24.34ZM173.69,58.19h0Z"/><path class="cls-1" d="M220.07,57.7v.49H200.73c2.7,0,4.92-2.7,4.92-5.41V6.24c0-2.71-2.21-5.41-4.92-5.41h19.34V57.7Zm12.95-38V39.34a13.74,13.74,0,0,0-12.95-9.83A13.74,13.74,0,0,0,233,19.68ZM224.08.83H240.8V16.32A21.08,21.08,0,0,0,220.89.83Zm16.72,42v15.4H220.89A21,21,0,0,0,240.8,42.79Z"/><path class="cls-1" d="M291.76,44.75c-4.59,8.11-12.7,13.44-21.88,13.44-14.26,0-25.81-12.86-25.81-28.68S255.62.83,269.88.83C265.13.83,260,11.32,260,23.45c0,15,8.6,27.2,19.17,27.2A17.16,17.16,0,0,0,291.76,44.75ZM271.85.91c7.95.66,15,5.41,18.19,10.49a11,11,0,0,1,1.72,5.41,8.77,8.77,0,0,1-17.53,0c0-5.49,4.59-6.56,4.83-10.82C279.06,2.8,274.88,1.24,271.85.91Z"/><path class="cls-1" d="M311.42.83c-8.28.82-13.44,7.46-15.57,15.49V.83Zm21.22,57.36H308.3c2.79,0,4.92-2.7,4.92-5.41V.83h14.5v52C327.72,55.49,329.93,58.19,332.64,58.19ZM345.09.83V16.32c-2-8-7.29-14.67-15.49-15.49Z"/><path class="cls-1" d="M383.11,58.19a8.69,8.69,0,0,0,7.54-8.28c0-12.37-29.58-20.32-29.58-35.73,0-9.83,12-13.36,20.81-13.36h1.23a8,8,0,0,0-7.54,7.46c-.9,12.78,26.79,18.76,28.19,34.09C404.49,51.06,394.58,57.94,383.11,58.19Zm-1.88,0c-11.06-.41-20.16-6.39-20.16-14.18a8.77,8.77,0,0,1,17.54,0,9.32,9.32,0,0,1-2.54,6.23c-1.72,1.8-2.54,2.54-2.29,4C374.09,56.06,376.63,57.94,381.22,58.19Zm4-57.19c3.52.33,6.39,1,9.91,1C397,2,399,1.74,400.07.83V16.32C398.84,9.85,393,1.9,385.24,1Z"/><path class="cls-1" d="M431.44,58.19H407.11c2.71,0,4.92-2.7,4.92-5.41V6.24c0-2.71-2.21-5.41-4.92-5.41h24.34c-2.79,0-5,2.7-5,5.41V52.78C426.44,55.49,428.66,58.19,431.44,58.19Z"/><path class="cls-1" d="M500,75.15H474.27c2-.08,3.44-2.13,3.44-4a3.43,3.43,0,0,0-.57-1.88L441.27,5.83c-1.15-2-3.52-4.67-5.74-5h25.73c-1.88.08-3.44,2.13-3.44,4a3.65,3.65,0,0,0,.57,1.88s34.73,61.73,35.87,63.42S497.79,74.82,500,75.15Zm-42.59-17H435.54c6.23-.82,12.29-6.72,15.82-12.86a9.07,9.07,0,0,0-1,4.26A8.79,8.79,0,0,0,457.41,58.19ZM451.51,45a.43.43,0,0,1-.16.33A.43.43,0,0,0,451.51,45Zm17-44.17h21.88c-6.23.9-12.29,6.72-15.81,12.86a9.07,9.07,0,0,0,1-4.26A8.79,8.79,0,0,0,468.48.83ZM474.38,14c.08-.16.08-.25.16-.33C474.46,13.78,474.46,13.86,474.38,14Z"/><path class="cls-1" d="M48.86,75.25v3.32a5.65,5.65,0,0,1-3.4,1.2,4.62,4.62,0,1,1,.05-9.23,5.17,5.17,0,0,1,3.37,1.26l-.6.78a4.2,4.2,0,0,0-2.77-1.06,3.63,3.63,0,1,0,0,7.26A4.38,4.38,0,0,0,47.93,78V75.25Z"/><path class="cls-1" d="M63.59,75.15a4.8,4.8,0,1,1-4.79-4.6A4.68,4.68,0,0,1,63.59,75.15Zm-8.52,0a3.73,3.73,0,1,0,3.74-3.61A3.69,3.69,0,0,0,55.07,75.15Z"/><path class="cls-1" d="M71.26,79.73l-3.71-9.15h1.12l3.15,7.94L75,70.57h1.1l-3.74,9.15Z"/><path class="cls-1" d="M82.07,71.58v3h4.61v1H82.07v3.14H87.4v1H81V70.57h6.21v1Z"/><path class="cls-1" d="M97.1,76.81l-.61,0H94.05v2.89H93V70.57h3.48c2.29,0,3.61,1.12,3.61,3.07a2.87,2.87,0,0,1-2.05,3l2.14,3.11H99Zm-.61-1c1.66,0,2.6-.73,2.6-2.16s-.94-2.09-2.6-2.09H94.05v4.25Z"/><path class="cls-1" d="M112.47,79.73,107,72.38v7.35h-1V70.57H107l5.49,7.36V70.57h1v9.15Z"/><path class="cls-1" d="M128.09,79.73V72.18l-3.33,6.58h-.63l-3.32-6.58v7.54h-1V70.57h1.29l3.35,6.59,3.33-6.59h1.28v9.15Z"/><path class="cls-1" d="M136.36,71.58v3H141v1h-4.62v3.14h5.33v1h-6.38V70.57h6.21v1Z"/><path class="cls-1" d="M153.83,79.73l-5.49-7.35v7.35h-1V70.57h1.08l5.49,7.36V70.57h1v9.15Z"/><path class="cls-1" d="M163.95,71.58v8.15h-1V71.58h-3v-1h7v1Z"/><path class="cls-1" d="M179.78,77.41l-1,2.31h-1.11l4.11-9.15h1.09l4.09,9.15h-1.14l-1-2.31Zm2.48-5.65-2,4.64h4.11Z"/><path class="cls-1" d="M198.88,71.88l-.63.8a3.84,3.84,0,0,0-2.71-1.15,3.61,3.61,0,1,0,0,7.22,4,4,0,0,0,2.71-1.1l.64.72a5.05,5.05,0,0,1-3.4,1.41,4.62,4.62,0,1,1,0-9.23A5,5,0,0,1,198.88,71.88Z"/><path class="cls-1" d="M211.28,71.88l-.63.8a3.84,3.84,0,0,0-2.71-1.15,3.61,3.61,0,1,0,0,7.22,4,4,0,0,0,2.71-1.1l.64.72a5.05,5.05,0,0,1-3.4,1.41,4.62,4.62,0,1,1,0-9.23A5,5,0,0,1,211.28,71.88Z"/><path class="cls-1" d="M225.14,75.15a4.8,4.8,0,1,1-4.78-4.6A4.68,4.68,0,0,1,225.14,75.15Zm-8.52,0a3.73,3.73,0,1,0,3.74-3.61A3.69,3.69,0,0,0,216.62,75.15Z"/><path class="cls-1" d="M238,76a3.84,3.84,0,0,1-7.69,0V70.57h1V76a2.8,2.8,0,1,0,5.6,0V70.57h1Z"/><path class="cls-1" d="M250.58,79.73l-5.49-7.35v7.35h-1V70.57h1.09l5.49,7.36V70.57h1v9.15Z"/><path class="cls-1" d="M260.69,71.58v8.15h-1V71.58h-3v-1h7v1Z"/><path class="cls-1" d="M268.62,77.41l-1,2.31h-1.11l4.11-9.15h1.08l4.09,9.15h-1.14l-1-2.31Zm2.48-5.65-2,4.64h4.11Z"/><path class="cls-1" d="M284.54,70.57c1.84,0,3,.85,3,2.29a2,2,0,0,1-1.69,2.07,2.24,2.24,0,0,1,2.09,2.31c0,1.56-1.23,2.48-3.3,2.48h-3.92V70.57Zm-2.81,3.95h2.76c1.23,0,1.95-.54,1.95-1.49s-.72-1.45-1.95-1.45h-2.76Zm0,4.21h2.76c1.49,0,2.35-.59,2.35-1.63s-.86-1.58-2.35-1.58h-2.76Z"/><path class="cls-1" d="M293.52,79.73V70.57h1v9.15Z"/><path class="cls-1" d="M305.87,78.73v1h-5.06V70.57h1v8.16Z"/><path class="cls-1" d="M311,79.73V70.57h1v9.15Z"/><path class="cls-1" d="M321.11,71.58v8.15h-1V71.58h-3v-1h7v1Z"/><path class="cls-1" d="M332.33,79.73h-1v-3.1l-3.54-6.05h1.09l3,4.77,2.93-4.77h1.07l-3.48,6Z"/><path class="cls-1" d="M350.57,71.58v8.15h-1V71.58h-3v-1h7v1Z"/><path class="cls-1" d="M358.5,77.41l-1,2.31h-1.11l4.11-9.15h1.08l4.09,9.15h-1.14l-1-2.31ZM361,71.76l-2,4.64H363Z"/><path class="cls-1" d="M376.08,71.38l-.45,1a4.72,4.72,0,0,0-2.52-.77c-1.18,0-1.95.44-1.95,1.22,0,2.35,5.15,1.12,5.14,4.45,0,1.53-1.35,2.51-3.31,2.51a5.22,5.22,0,0,1-3.5-1.4l.47-.94a4.55,4.55,0,0,0,3,1.29c1.32,0,2.14-.54,2.14-1.41,0-2.41-5.14-1.12-5.14-4.41,0-1.44,1.27-2.37,3.16-2.37A5.41,5.41,0,0,1,376.08,71.38Z"/><path class="cls-1" d="M384.74,75.38,383,77.33v2.39h-1V70.57h1v5.27l4.92-5.27h1.24l-3.62,4,3.9,5.18h-1.28Z"/><path class="cls-1" d="M402.63,71.58V74.8h4.28v1h-4.28v3.92h-1V70.57h5.82v1Z"/><path class="cls-1" d="M421.13,75.15a4.8,4.8,0,1,1-4.78-4.6A4.68,4.68,0,0,1,421.13,75.15Zm-8.52,0a3.73,3.73,0,1,0,3.74-3.61A3.69,3.69,0,0,0,412.61,75.15Z"/><path class="cls-1" d="M430.61,76.81l-.61,0h-2.43v2.89h-1V70.57H430c2.29,0,3.61,1.12,3.61,3.07a2.87,2.87,0,0,1-2.05,3l2.14,3.11H432.5Zm-.61-1c1.66,0,2.6-.73,2.6-2.16s-.94-2.09-2.6-2.09h-2.43v4.25Z"/><path class="cls-1" d="M446.7,71.88l-.63.8a3.84,3.84,0,0,0-2.71-1.15,3.61,3.61,0,1,0,0,7.22,4,4,0,0,0,2.71-1.1l.64.72a5.05,5.05,0,0,1-3.4,1.41,4.62,4.62,0,1,1,0-9.23A5,5,0,0,1,446.7,71.88Z"/><path class="cls-1" d="M453.11,71.58v3h4.62v1h-4.62v3.14h5.33v1h-6.38V70.57h6.21v1Z"/></svg>